<svg width="12" height="12" viewBox="0 0 12 12" fill="none" xmlns="http://www.w3.org/2000/svg">
<path fill-rule="evenodd" clip-rule="evenodd" d="M10.875 0H0.375C0.175 0 0 0.175 0 0.375V10.875C0 11.075 0.175 11.25 0.375 11.25H10.875C11.075 11.25 11.25 11.075 11.25 10.875V0.375C11.25 0.175 11.075 0 10.875 0ZM0.75 0.75H3.5V3.5H0.75V0.75ZM0.75 4.25H3.5V7H0.75V4.25ZM3.5 10.5H0.75V7.75H3.5V10.5ZM7 10.5H4.25V7.75H7V10.5ZM7 7H4.25V4.25H7V7ZM7 3.5H4.25V0.75H7V3.5ZM10.5 10.5H7.75V7.75H10.5V10.5ZM10.5 7H7.75V4.25H10.5V7ZM10.5 3.5H7.75V0.75H10.5V3.5Z" fill="#262626"/>
</svg>
